<?xml version="1.0" encoding="utf-8"?>
<!-- Generator: Adobe Illustrator 23.0.1, SVG Export Plug-In . SVG Version: 6.00 Build 0)  -->
<svg version="1.1" xmlns="http://www.w3.org/2000/svg" xmlns:xlink="http://www.w3.org/1999/xlink" x="0px" y="0px"
	 viewBox="0 0 1600 900" style="enable-background:new 0 0 1600 900;" xml:space="preserve">
<style type="text/css">
	.st0{fill:#D41284;}
	.st1{opacity:0.5;}
	.st2{fill:none;stroke:#FFFFFF;stroke-width:0.6153;stroke-miterlimit:10;}
	.st3{opacity:0.5;fill:none;stroke:#FFFFFF;stroke-width:0.6153;stroke-miterlimit:10;}
	.st4{fill:none;stroke:#FFFFFF;stroke-width:0.7986;stroke-miterlimit:10;}
	.st5{opacity:0.5;fill:none;stroke:#FFFFFF;stroke-width:0.7986;stroke-miterlimit:10;}
	.st6{fill:#FFFFFF;}
</style>
<g id="Layer_1">
	<rect class="st0" width="1599" height="900"/>
</g>
<g id="Layer_2" class="st1">
	<line class="st2" x1="4" y1="-17.9" x2="4" y2="910.8"/>
	<line class="st3" x1="29.4" y1="-17.8" x2="29.4" y2="910.9"/>
	<line class="st3" x1="54.9" y1="-17.7" x2="54.9" y2="911.1"/>
	<line class="st3" x1="80.3" y1="-17.5" x2="80.3" y2="911.2"/>
	<line class="st2" x1="105.7" y1="-17.4" x2="105.7" y2="911.3"/>
	<line class="st3" x1="131.2" y1="-17.3" x2="131.2" y2="911.4"/>
	<line class="st3" x1="156.6" y1="-17.2" x2="156.6" y2="911.5"/>
	<line class="st3" x1="182" y1="-17.1" x2="182" y2="911.6"/>
	<line class="st2" x1="207.4" y1="-17" x2="207.4" y2="911.7"/>
	<line class="st3" x1="232.9" y1="-16.8" x2="232.9" y2="911.9"/>
	<line class="st3" x1="258.3" y1="-16.7" x2="258.3" y2="912"/>
	<line class="st3" x1="283.7" y1="-16.6" x2="283.7" y2="912.1"/>
	<line class="st2" x1="309.2" y1="-16.5" x2="309.2" y2="912.2"/>
	<line class="st3" x1="334.6" y1="-16.4" x2="334.6" y2="912.3"/>
	<line class="st3" x1="360" y1="-16.3" x2="360" y2="912.4"/>
	<line class="st3" x1="385.4" y1="-16.1" x2="385.4" y2="912.6"/>
	<line class="st2" x1="410.9" y1="-16" x2="410.9" y2="912.7"/>
	<line class="st3" x1="436.3" y1="-15.9" x2="436.3" y2="912.8"/>
	<line class="st3" x1="461.7" y1="-15.8" x2="461.7" y2="912.9"/>
	<line class="st3" x1="487.2" y1="-15.7" x2="487.2" y2="913"/>
	<line class="st2" x1="512.6" y1="-15.6" x2="512.6" y2="913.1"/>
	<line class="st3" x1="538" y1="-15.5" x2="538" y2="913.3"/>
	<line class="st3" x1="563.4" y1="-15.3" x2="563.4" y2="913.4"/>
	<line class="st3" x1="588.9" y1="-15.2" x2="588.9" y2="913.5"/>
	<line class="st2" x1="614.3" y1="-15.1" x2="614.3" y2="913.6"/>
	<line class="st3" x1="639.7" y1="-15" x2="639.7" y2="913.7"/>
	<line class="st3" x1="665.1" y1="-14.9" x2="665.1" y2="913.8"/>
	<line class="st3" x1="690.6" y1="-14.8" x2="690.6" y2="913.9"/>
	<line class="st2" x1="716" y1="-14.6" x2="716" y2="914.1"/>
	<line class="st3" x1="741.4" y1="-14.5" x2="741.4" y2="914.2"/>
	<line class="st3" x1="766.9" y1="-14.4" x2="766.9" y2="914.3"/>
	<line class="st3" x1="792.3" y1="-18" x2="792.3" y2="910.7"/>
	<line class="st2" x1="817.7" y1="-14.3" x2="817.7" y2="914.4"/>
	<line class="st3" x1="843.1" y1="-14.2" x2="843.1" y2="914.5"/>
	<line class="st3" x1="868.6" y1="-14.1" x2="868.6" y2="914.6"/>
	<line class="st3" x1="894" y1="-13.9" x2="894" y2="914.8"/>
	<line class="st2" x1="919.4" y1="-13.8" x2="919.4" y2="914.9"/>
	<line class="st3" x1="944.9" y1="-13.7" x2="944.9" y2="915"/>
	<line class="st3" x1="970.3" y1="-13.6" x2="970.3" y2="915.1"/>
	<line class="st3" x1="995.7" y1="-13.5" x2="995.7" y2="915.2"/>
	<line class="st2" x1="1021.1" y1="-13.4" x2="1021.1" y2="915.3"/>
	<line class="st3" x1="1046.6" y1="-13.3" x2="1046.6" y2="915.5"/>
	<line class="st3" x1="1072" y1="-13.1" x2="1072" y2="915.6"/>
	<line class="st3" x1="1097.4" y1="-13" x2="1097.4" y2="915.7"/>
	<line class="st2" x1="1122.9" y1="-12.9" x2="1122.9" y2="915.8"/>
	<line class="st3" x1="1148.3" y1="-12.8" x2="1148.3" y2="915.9"/>
	<line class="st3" x1="1173.7" y1="-12.7" x2="1173.7" y2="916"/>
	<line class="st3" x1="1199.1" y1="-12.6" x2="1199.1" y2="916.1"/>
	<line class="st2" x1="1224.6" y1="-12.4" x2="1224.6" y2="916.3"/>
	<line class="st3" x1="1250" y1="-12.3" x2="1250" y2="916.4"/>
	<line class="st3" x1="1275.4" y1="-12.2" x2="1275.4" y2="916.5"/>
	<line class="st3" x1="1300.9" y1="-12.1" x2="1300.9" y2="916.6"/>
	<line class="st2" x1="1326.3" y1="-12" x2="1326.3" y2="916.7"/>
	<line class="st3" x1="1351.7" y1="-11.9" x2="1351.7" y2="916.8"/>
	<line class="st3" x1="1377.1" y1="-11.7" x2="1377.1" y2="917"/>
	<line class="st3" x1="1402.6" y1="-11.6" x2="1402.6" y2="917.1"/>
	<line class="st2" x1="1428" y1="-11.5" x2="1428" y2="917.2"/>
	<line class="st3" x1="1453.4" y1="-11.4" x2="1453.4" y2="917.3"/>
	<line class="st3" x1="1478.9" y1="-11.3" x2="1478.9" y2="917.4"/>
	<line class="st3" x1="1504.3" y1="-11.2" x2="1504.3" y2="917.5"/>
	<line class="st2" x1="1529.7" y1="-11.1" x2="1529.7" y2="917.7"/>
	<line class="st3" x1="1555.1" y1="-10.9" x2="1555.1" y2="917.8"/>
	<line class="st3" x1="1580.6" y1="-10.8" x2="1580.6" y2="917.9"/>
	<line class="st3" x1="1606" y1="-10.7" x2="1606" y2="918"/>
</g>
<g id="Layer_4" class="st1">
	<line class="st4" x1="1595.7" y1="0" x2="9.2" y2="0"/>
	<line class="st5" x1="1595.5" y1="25.1" x2="9" y2="25.1"/>
	<line class="st5" x1="1595.3" y1="50.2" x2="8.8" y2="50.2"/>
	<line class="st5" x1="1595.1" y1="75.2" x2="8.6" y2="75.2"/>
	<line class="st4" x1="1594.9" y1="100.3" x2="8.4" y2="100.3"/>
	<line class="st5" x1="1594.8" y1="125.4" x2="8.2" y2="125.4"/>
	<line class="st5" x1="1594.6" y1="150.5" x2="8" y2="150.5"/>
	<line class="st5" x1="1594.4" y1="175.6" x2="7.8" y2="175.6"/>
	<line class="st4" x1="1594.2" y1="200.6" x2="7.7" y2="200.6"/>
	<line class="st5" x1="1594" y1="225.7" x2="7.5" y2="225.7"/>
	<line class="st5" x1="1593.8" y1="250.8" x2="7.3" y2="250.8"/>
	<line class="st5" x1="1593.6" y1="275.9" x2="7.1" y2="275.9"/>
	<line class="st4" x1="1593.4" y1="301" x2="6.9" y2="301"/>
	<line class="st5" x1="1593.2" y1="326" x2="6.7" y2="326"/>
	<line class="st5" x1="1593" y1="351.1" x2="6.5" y2="351.1"/>
	<line class="st5" x1="1592.8" y1="376.2" x2="6.3" y2="376.2"/>
	<line class="st4" x1="1592.6" y1="401.3" x2="6.1" y2="401.3"/>
	<line class="st5" x1="1592.4" y1="426.3" x2="5.9" y2="426.3"/>
	<line class="st5" x1="1592.2" y1="451.4" x2="5.7" y2="451.4"/>
	<line class="st5" x1="1592" y1="476.5" x2="5.5" y2="476.5"/>
	<line class="st4" x1="1591.8" y1="501.6" x2="5.3" y2="501.6"/>
	<line class="st5" x1="1591.6" y1="526.7" x2="5.1" y2="526.7"/>
	<line class="st5" x1="1591.4" y1="551.7" x2="4.9" y2="551.7"/>
	<line class="st5" x1="1591.2" y1="576.8" x2="4.7" y2="576.8"/>
	<line class="st4" x1="1591" y1="601.9" x2="4.5" y2="601.9"/>
	<line class="st5" x1="1590.8" y1="627" x2="4.3" y2="627"/>
	<line class="st5" x1="1590.6" y1="652.1" x2="4.1" y2="652.1"/>
	<line class="st5" x1="1590.4" y1="677.1" x2="3.9" y2="677.1"/>
	<line class="st4" x1="1590.2" y1="702.2" x2="3.7" y2="702.2"/>
	<line class="st5" x1="1590" y1="727.3" x2="3.5" y2="727.3"/>
	<line class="st5" x1="1589.8" y1="752.4" x2="3.3" y2="752.4"/>
	<line class="st5" x1="1595.9" y1="777.5" x2="9.4" y2="777.5"/>
	<line class="st4" x1="1589.6" y1="802.5" x2="3.1" y2="802.5"/>
	<line class="st5" x1="1589.4" y1="827.6" x2="2.9" y2="827.6"/>
	<line class="st5" x1="1589.2" y1="852.7" x2="2.7" y2="852.7"/>
	<line class="st5" x1="1589" y1="877.8" x2="2.5" y2="877.8"/>
	<line class="st4" x1="1588.8" y1="902.9" x2="2.3" y2="902.9"/>
</g>
<g id="Layer_3">
	<g>
		<path class="st6" d="M609,602.8c-55.2,0-100-44.8-100-100s44.8-100,100-100c11.6,0,22.7,2,33.1,5.6
			c15.5-72.6,80-127.1,157.2-127.1c57.8,0,108.5,30.5,136.8,76.4c10.3-2.7,21.1-4.2,32.3-4.2c68.8,0,124.6,55.8,124.6,124.7
			c0,67.9-54.3,123.2-121.9,124.6v0H609z M594.3,366.5c18.1,0,32.8-14.7,32.8-32.8s-14.7-32.8-32.8-32.8
			c-18.1,0-32.8,14.7-32.8,32.8S576.2,366.5,594.3,366.5z M715.7,501.5c18.2,0,24.3-16.3,24.3-36.5s-6.1-36.5-24.3-36.5
			s-24.3,16.3-24.3,36.5S697.4,501.5,715.7,501.5z M879.7,501.5c18.2,0,24.3-16.3,24.3-36.5s-6.1-36.5-24.3-36.5
			s-24.3,16.3-24.3,36.5S861.5,501.5,879.7,501.5z"/>
	</g>
</g>
</svg>
