<?xml version="1.0" encoding="utf-8"?>
<!-- Generator: Adobe Illustrator 23.0.1, SVG Export Plug-In . SVG Version: 6.00 Build 0)  -->
<svg version="1.1" xmlns="http://www.w3.org/2000/svg" xmlns:xlink="http://www.w3.org/1999/xlink" x="0px" y="0px"
	 viewBox="0 0 1600 900" style="enable-background:new 0 0 1600 900;" xml:space="preserve">
<style type="text/css">
	.st0{fill:#1E52C3;}
	.st1{opacity:0.7;}
	.st2{fill:#FFFFFF;}
	.st3{fill:none;stroke:#FFFFFF;stroke-width:6.6708;stroke-miterlimit:10;}
	.st4{fill:#FFFFFF;stroke:#FFFFFF;stroke-width:5.5446;stroke-linejoin:round;stroke-miterlimit:10;}
	.st5{fill:#FFFFFF;stroke:#FFFFFF;stroke-width:4.8936;stroke-linejoin:round;stroke-miterlimit:10;}
	.st6{fill:#215CCA;stroke:#FFFFFF;stroke-width:2.354;stroke-miterlimit:10;}
	.st7{fill:none;stroke:#FFFFFF;stroke-width:4;stroke-miterlimit:10;}
	.st8{fill:#215CCA;stroke:#FFFFFF;stroke-width:4.8277;stroke-miterlimit:10;}
	.st9{fill:#FFFFFF;stroke:#FFFFFF;stroke-width:2.7833;stroke-linejoin:round;stroke-miterlimit:10;}
	.st10{fill:#FFFFFF;stroke:#FFFFFF;stroke-width:1.906;stroke-linejoin:round;stroke-miterlimit:10;}
	.st11{fill:#215CCA;stroke:#FFFFFF;stroke-width:5.5614;stroke-miterlimit:10;}
	.st12{fill:none;stroke:#1E52C3;stroke-width:4.7845;stroke-linecap:round;stroke-linejoin:round;stroke-miterlimit:10;}
	.st13{fill:none;stroke:#FFFFFF;stroke-width:5.4151;stroke-linejoin:round;stroke-miterlimit:10;}
	.st14{fill:none;stroke:#FFFFFF;stroke-width:12.6165;stroke-linejoin:round;stroke-miterlimit:10;}
	.st15{fill:none;stroke:#FFFFFF;stroke-width:11.8623;stroke-linecap:round;stroke-linejoin:round;stroke-miterlimit:10;}
	.st16{fill:none;stroke:#FFFFFF;stroke-width:16.5608;stroke-linejoin:round;stroke-miterlimit:10;}
	.st17{fill:#FFFFFF;stroke:#FFFFFF;stroke-width:9.5229;stroke-linejoin:round;stroke-miterlimit:10;}
	.st18{fill:none;stroke:#FFFFFF;stroke-width:13.7763;stroke-linejoin:round;stroke-miterlimit:10;}
	.st19{fill:none;stroke:#FFFFFF;stroke-width:21.1407;stroke-linejoin:round;stroke-miterlimit:10;}
	.st20{fill:none;stroke:#FFFFFF;stroke-width:6.0313;stroke-linecap:round;stroke-linejoin:round;stroke-miterlimit:10;}
	.st21{fill:none;stroke:#FFFFFF;stroke-width:11.9418;stroke-linecap:round;stroke-linejoin:round;stroke-miterlimit:10;}
	.st22{fill:none;stroke:#FFFFFF;stroke-width:8.9783;stroke-linecap:round;stroke-linejoin:round;stroke-miterlimit:10;}
	.st23{fill:none;stroke:#FFFFFF;stroke-width:12;stroke-linecap:round;stroke-linejoin:round;}
</style>
<g id="Layer_1">
	<rect x="-3" class="st0" width="1602" height="900"/>
</g>
<g id="Layer_3" class="st1">
	<g>
		<path class="st2" d="M1004.2,267.9l-52.2,29.9c-4.6,2.7-10.6,1-13.3-3.6L908.9,242c-2.7-4.6-1-10.6,3.6-13.3l52.2-29.9
			c4.6-2.7,10.6-1,13.3,3.6l29.9,52.2C1010.5,259.3,1008.9,265.2,1004.2,267.9z"/>
		<g>
			<path class="st0" d="M943.2,273c1.8-2.3,3.3-4.8,4.3-7.5c1.1-2.8,1.1-5.6,0.1-8.6c-3,1.7-5.9,2.4-8.8,2.2
				c-2.9-0.2-5.2-1.9-7.1-5.1c-1.5-2.6-1.8-5.3-0.7-7.9c1-2.6,2.8-4.6,5.3-6c3.3-1.9,6.4-2.2,9.2-0.8c2.8,1.3,5.1,3.5,6.9,6.6
				c1.6,2.7,2.4,5.5,2.5,8.2c0.1,2.7-0.2,5.5-1,8.1c-0.8,2.7-2,5.2-3.6,7.7c-1.6,2.5-3.3,4.7-5.2,6.8L943.2,273z M968.5,258.5
				c1.8-2.3,3.3-4.8,4.3-7.5c1.1-2.8,1.1-5.6,0.1-8.6c-3,1.7-5.9,2.4-8.8,2.2c-2.9-0.2-5.2-1.9-7.1-5.1c-1.5-2.6-1.8-5.3-0.7-7.9
				c1-2.6,2.8-4.6,5.3-6c3.3-1.9,6.4-2.2,9.2-0.8c2.8,1.3,5.1,3.5,6.9,6.6c1.6,2.7,2.4,5.5,2.5,8.2c0.1,2.7-0.2,5.5-1,8.1
				c-0.8,2.7-2,5.2-3.6,7.7c-1.6,2.5-3.3,4.7-5.2,6.8L968.5,258.5z"/>
		</g>
	</g>
	<g>
		<path class="st3" d="M1218.8,437.2l-63.5-55.2c-11.2-9.7-12.4-26.8-2.7-38l52.1-60c9.7-11.2,26.8-12.4,38-2.7l60,52.1
			c11.2,9.7,12.4,26.8,2.7,38l-55.2,63.5C1242.2,444.2,1228,445.2,1218.8,437.2z"/>
		<polygon class="st4" points="1201.3,373.1 1198.7,336 1214.1,334.9 1215.6,356.6 1267.8,353 1268.9,368.4 		"/>
	</g>
	<polygon class="st5" points="342.5,241.3 342.7,288.8 381.9,315.5 336.8,330.4 323.5,375.9 295.5,337.6 248.1,339.1 275.8,300.6 
		259.8,255.9 305,270.4 	"/>
	<g>
		<path class="st6" d="M1379.4,811.6l-187.1-45.3c-7.1-1.7-11.4-8.9-9.7-16l12.1-49.8c1.7-7.1,8.9-11.4,16-9.7l187.1,45.3
			c7.1,1.7,11.4,8.9,9.7,16l-12.1,49.8C1393.6,808.9,1386.4,813.3,1379.4,811.6z"/>
		<g>
			<path class="st2" d="M1239,752.6c-1.4-0.3-2.4-1-3.2-2c-0.7-0.9-1.1-1.9-1.2-3.1c-0.1-1.1,0.2-2.2,0.7-3.2c0,0,0-0.1,0.1-0.2
				c0.1-0.1,0.1-0.1,0.1-0.2c0,0,0-0.1,0.1-0.2c-2.3,0.7-4.4,1.2-6.2,1.4c-0.8,0.1-1.5,0-2.2-0.2c-0.7-0.2-1.4-0.5-1.9-1
				c-0.6-0.4-1-1-1.4-1.6c-0.4-0.7-0.6-1.4-0.7-2.1c-0.1-0.8-0.1-1.5,0.2-2.2c0.2-0.7,0.6-1.4,1-1.9c0.4-0.6,1-1,1.7-1.4
				c0.7-0.4,1.4-0.6,2.1-0.7c0.7-0.1,1.9-0.3,3.5-0.8c1.7-0.5,4.1-1.4,7.1-2.9c0.9-0.4,1.8-0.9,2.5-1.2c0.8-0.4,1.5-0.8,2-1.1
				c0.7-0.4,1.3-0.7,1.9-1.1c1.8-1.1,3.7-1.1,5.6-0.1c0.7,0.4,1.3,0.8,1.7,1.5c0.5,0.6,0.8,1.3,1,2c0.3,1.2,0.3,2.3,0,3.3
				c-0.3,1-0.8,2.2-1.5,3.5c-0.2,0.3-0.3,0.7-0.5,1c-0.2,0.3-0.4,0.7-0.6,1.1c1.2,0.2,2.2,0.7,3.1,1.6c0.8,0.8,1.4,1.8,1.6,3.1
				c0.1,0.8,0.1,1.5-0.1,2.2c-0.2,0.7-0.5,1.4-0.9,2c-0.4,0.6-0.9,1.1-1.5,1.5c-0.6,0.4-1.3,0.7-2.1,0.8c-1.3,0.3-2.6,0.5-3.7,0.8
				c-1.1,0.2-2.1,0.5-3,0.7c-0.8,0.2-1.5,0.4-2,0.5c-0.5,0.1-0.8,0.2-0.8,0.2C1240.8,752.8,1239.9,752.8,1239,752.6z"/>
			<path class="st2" d="M1260.3,757.8c-1.4-0.3-2.4-1-3.2-2c-0.7-0.9-1.1-1.9-1.2-3.1c-0.1-1.1,0.2-2.2,0.7-3.2c0,0,0-0.1,0.1-0.2
				c0.1-0.1,0.1-0.1,0.1-0.2c0,0,0-0.1,0.1-0.2c-2.3,0.7-4.4,1.2-6.2,1.4c-0.8,0.1-1.5,0-2.2-0.2c-0.7-0.2-1.4-0.5-1.9-1
				c-0.6-0.4-1-1-1.4-1.6c-0.4-0.7-0.6-1.4-0.7-2.1c-0.1-0.8-0.1-1.5,0.2-2.2c0.2-0.7,0.6-1.4,1-1.9c0.4-0.6,1-1,1.7-1.4
				c0.7-0.4,1.4-0.6,2.1-0.7c0.7-0.1,1.9-0.3,3.5-0.8c1.7-0.5,4.1-1.4,7.1-2.9c0.9-0.4,1.8-0.9,2.5-1.2c0.8-0.4,1.5-0.8,2-1.1
				c0.7-0.4,1.3-0.7,1.9-1.1c1.8-1.1,3.7-1.1,5.6-0.1c0.7,0.4,1.3,0.8,1.7,1.5c0.5,0.6,0.8,1.3,1,2c0.3,1.2,0.3,2.3,0,3.3
				c-0.3,1-0.8,2.2-1.5,3.5c-0.2,0.3-0.3,0.7-0.5,1c-0.2,0.3-0.4,0.7-0.6,1.1c1.2,0.2,2.2,0.7,3.1,1.6c0.8,0.8,1.4,1.8,1.6,3.1
				c0.1,0.8,0.1,1.5-0.1,2.2c-0.2,0.7-0.5,1.4-0.9,2c-0.4,0.6-0.9,1.1-1.5,1.5c-0.6,0.4-1.3,0.7-2.1,0.8c-1.3,0.3-2.6,0.5-3.7,0.8
				c-1.1,0.2-2.1,0.5-3,0.7c-0.8,0.2-1.5,0.4-2,0.5c-0.5,0.1-0.8,0.2-0.8,0.2C1262.2,758,1261.2,758,1260.3,757.8z"/>
			<path class="st2" d="M1288.5,764c-0.5-0.1-1.1-0.4-1.6-0.7c-0.9-0.4-1.5-1-2.1-1.8c-0.5-0.8-0.8-1.6-1-2.5
				c-0.2-1.5,0.2-3.1,1.2-4.7c0.4-0.6,0.9-1.2,1.5-2c0.1-0.1,0.2-0.3,0.4-0.4c0.1-0.1,0.3-0.3,0.4-0.4c-0.9,0.2-1.9,0.5-2.8,0.8
				c-0.9,0.3-1.9,0.6-2.8,0.8c-1.7,0.6-3.4,1-4.9,1.5c-1.6,0.4-3,0.7-4.3,1c-0.8,0.2-1.5,0.2-2.2,0s-1.4-0.5-2-0.9
				c-0.6-0.4-1.1-0.9-1.5-1.6c-0.4-0.6-0.7-1.3-0.8-2.1c-0.2-0.8-0.2-1.5,0-2.2c0.2-0.7,0.5-1.4,0.9-2c0.4-0.6,0.9-1.1,1.6-1.5
				c0.6-0.4,1.3-0.7,2.1-0.8c0.9-0.2,2.1-0.5,3.5-0.9c1.4-0.4,2.9-0.8,4.5-1.3c1.8-0.6,3.8-1.1,5.8-1.7c2-0.6,4-1,5.9-1.3
				c2.2-0.5,4.1-0.7,5.9-0.6c1.2,0,2.4,0.1,3.4,0.3c1,0.2,2,0.6,2.9,1c1.9,1.1,2.9,2.6,3.2,4.7c0.2,1.5,0,2.9-0.7,4.1
				s-1.5,2.3-2.4,3.4c0.1,0,0.2,0,0.4,0c0.1,0,0.3,0,0.4-0.1c0.8-0.1,1.5,0,2.2,0.2c0.7,0.2,1.3,0.6,1.9,1c0.6,0.4,1,1,1.4,1.6
				c0.4,0.7,0.6,1.4,0.7,2.1c0.1,0.8,0,1.5-0.2,2.2c-0.2,0.7-0.5,1.3-1,1.9c-0.4,0.6-1,1-1.6,1.4c-0.7,0.4-1.4,0.6-2.2,0.7
				c-1.9,0.2-3.6,0.4-5.1,0.5c-1.5,0.1-2.9,0.3-4.1,0.4c-1.6,0.1-3,0.1-4,0.1S1289.2,764.2,1288.5,764z"/>
			<path class="st2" d="M1304.7,772.3c-0.4-0.1-0.8-0.2-1.1-0.3c-0.3-0.1-0.6-0.2-0.8-0.3c-1-0.5-1.8-1.2-2.4-2.1
				c-0.6-0.8-1.1-1.8-1.2-2.8c-0.1-0.6-0.2-1.1-0.2-1.5c0-0.4,0.1-0.9,0.2-1.3c0.1-0.6,0.3-1.1,0.6-1.7c-0.3-0.3-0.6-0.6-0.9-1
				c-0.3-0.3-0.5-0.7-0.6-1c-0.6-1.4-0.7-2.7-0.4-4.1c0.2-0.9,0.6-1.7,1.2-2.4s1.3-1.3,2.1-1.7c0.2-0.1,0.7-0.4,1.3-0.8
				c0.6-0.4,1.2-0.8,1.7-1.2l1.4-0.9c0.6-0.4,1.3-0.9,2-1.3c0.7-0.4,1.3-0.9,2-1.2c0.7-0.4,1.3-0.7,1.9-0.9c0.5-0.3,1-0.5,1.4-0.6
				c2.2-0.7,4.3-0.6,6.2,0.3c2,1.1,3.1,2.6,3.4,4.6l0-0.1c0.1,0.4,0.1,0.7,0.1,1c0,0.3,0,0.7,0,1c0.6-0.4,1.2-0.8,1.8-1.2
				c0.5-0.4,1-0.8,1.4-1.1l1-0.7c0.1-0.1,0.2-0.1,0.2-0.2c0,0,0.1-0.1,0.1-0.1c1.1-0.8,2.3-1.2,3.5-1.4c1.3-0.1,2.4,0.1,3.5,0.7
				c0.8,0.4,1.4,1,1.9,1.7c0.5,0.8,0.9,1.6,1.2,2.4c0.2,1.3,0.2,2.3,0,3.2c-0.3,0.8-0.5,1.4-0.6,1.6c-0.1,0.2-0.2,0.3-0.3,0.5
				c-0.1,0.2-0.2,0.3-0.2,0.4l-0.6,1l-0.1,0.2c0.7,0.3,1.4,0.6,2,1.1c0.6,0.5,1.1,1.1,1.5,1.8c0.3,0.7,0.5,1.4,0.6,2.2
				c0.1,0.8,0,1.5-0.1,2.1c-0.4,1.8-1.6,3.2-3.4,4.1l-0.3,0.2c-0.9,0.5-1.9,0.9-2.9,1.4c-1,0.5-2.1,0.9-3.2,1.2
				c-2.5,0.8-4.7,0.9-6.8,0.4c-0.9-0.2-1.7-0.6-2.5-1c-0.6-0.3-1.2-0.7-1.7-1.2c-0.5-0.5-0.9-1-1.1-1.6c-0.5,0.3-1,0.5-1.5,0.7
				c-0.5,0.2-1,0.4-1.6,0.6l0.1,0c-1,0.4-1.9,0.7-2.8,0.9c-0.9,0.2-1.7,0.4-2.4,0.5c-0.7,0.1-1.4,0.1-2.1,0.1
				C1306,772.5,1305.3,772.4,1304.7,772.3z"/>
			<path class="st2" d="M1343.3,777.9c-1.4-0.3-2.4-1-3.2-2c-0.7-0.9-1.1-1.9-1.2-3.1c-0.1-1.1,0.2-2.2,0.7-3.2c0,0,0-0.1,0.1-0.2
				c0.1-0.1,0.1-0.1,0.1-0.2c0,0,0-0.1,0.1-0.2c-2.3,0.7-4.4,1.2-6.2,1.4c-0.8,0.1-1.5,0-2.2-0.2c-0.7-0.2-1.4-0.5-1.9-1
				c-0.6-0.4-1-1-1.4-1.6c-0.4-0.7-0.6-1.4-0.7-2.1c-0.1-0.8-0.1-1.5,0.2-2.2c0.2-0.7,0.6-1.4,1-1.9c0.4-0.6,1-1,1.7-1.4
				c0.7-0.4,1.4-0.6,2.1-0.7c0.7-0.1,1.9-0.3,3.5-0.8c1.7-0.5,4.1-1.4,7.1-2.9c0.9-0.4,1.8-0.9,2.5-1.2c0.8-0.4,1.5-0.8,2-1.1
				c0.7-0.4,1.3-0.7,1.9-1.1c1.8-1.1,3.7-1.1,5.6-0.1c0.7,0.4,1.3,0.8,1.7,1.5c0.5,0.6,0.8,1.3,1,2c0.3,1.2,0.3,2.3,0,3.3
				c-0.3,1-0.8,2.2-1.5,3.5c-0.2,0.3-0.3,0.7-0.5,1c-0.2,0.3-0.4,0.7-0.6,1.1c1.2,0.2,2.2,0.7,3.1,1.6c0.8,0.8,1.4,1.8,1.6,3.1
				c0.1,0.8,0.1,1.5-0.1,2.2c-0.2,0.7-0.5,1.4-0.9,2c-0.4,0.6-0.9,1.1-1.5,1.5c-0.6,0.4-1.3,0.7-2.1,0.8c-1.3,0.3-2.6,0.5-3.7,0.8
				c-1.1,0.2-2.1,0.5-3,0.7c-0.8,0.2-1.5,0.4-2,0.5c-0.5,0.1-0.8,0.2-0.8,0.2C1345.1,778,1344.1,778.1,1343.3,777.9z"/>
		</g>
	</g>
	<g>
		<path class="st2" d="M1095.8,193.3c-19.2-39-29.6-67.9-31.8-88.4c-2.1-19.4,3.4-29.1,7.4-36.3c0.3-0.5,0.9-1.7,0.9-1.7l0.2-0.3
			c8.4-12.6,22.4-20.2,37.6-20.2c8.2,0,16.3,2.3,23.4,6.6c16,8.9,22.5,24.9,25.1,35.3c5.2-1.7,12.1-3.2,19.7-3.2
			c8.5,0,16.4,1.9,23.4,5.8c21.8,10.8,31.1,36.6,21.2,58.8l-0.1,0.3c0,0-0.7,1.2-0.9,1.7c-3.8,7.1-9.1,16.8-26.6,25.4
			c-18.6,9.1-48.6,15.8-91.7,20.4l-5.3,0.6L1095.8,193.3z"/>
		<path class="st0" d="M1110.1,54.1c6.7,0,13.5,1.8,19.6,5.5c21.4,11.8,23,39.4,23,39.4s11.4-6.3,25.6-6.3c6.3,0,13.2,1.3,19.9,4.9
			c18.1,8.9,26,30.5,17.7,49c-7.5,13.7-14.5,32.7-113.2,43.3c-43.8-89-31.6-105-23.8-119.1C1086,60,1097.9,54.1,1110.1,54.1
			 M1110.1,38.8c-17.7,0-34.2,8.8-44,23.6l-0.4,0.5l-0.3,0.6c-0.2,0.5-0.5,0.9-0.8,1.4c-4.2,7.6-10.6,19.1-8.3,40.8
			c2.3,21.4,13,51.2,32.6,91l4.7,9.6l10.6-1.1c44.1-4.7,74.9-11.7,94.3-21.2c19.6-9.6,25.8-21.1,29.9-28.6c0.2-0.5,0.5-0.9,0.7-1.3
			l0.3-0.6l0.3-0.6c5.6-12.5,6.1-26.6,1.4-39.5c-4.6-12.8-13.9-23.2-26.1-29.2c-8.1-4.4-17.2-6.6-26.9-6.6c-5.3,0-10.2,0.7-14.5,1.6
			c-4-11.1-11.6-24.4-26.4-32.7C1129.1,41.5,1119.7,38.8,1110.1,38.8L1110.1,38.8z"/>
	</g>
	<g>
		<g>
			<path class="st2" d="M1410.5,603.2c-2.9,0-5.3-0.9-6.9-2.7c-2-2.2-2.9-5.5-2.5-9.9c0.4-5.3,3.3-8.7,8.4-9.9l-72.4-24.1
				c-0.1,0-3.5-1.2-6.4-3.6c-4.2-3.4-5.6-7.6-4.1-12.2c1.6-4.7,5.6-7.3,11.3-7.3c3.5,0,6.5,1,6.6,1l49.6,16.5
				c-1.9-2.8-2.3-5.9-1.2-9.2c1.4-4.3,4.9-6.8,9.8-7.3c-3-2.7-5.1-6.7-3.4-11.7c1.4-4.3,4.9-6.8,9.8-7.3c-3-2.7-5.1-6.7-3.4-11.7
				c1.6-4.7,5.6-7.3,11.3-7.3c3.2,0,6,0.8,6.5,1c3.4,0.8,61.7,14.5,60.1,35.4c-1.1,14.3-15.1,45.2-22.3,56.5
				c-7.6,11.9-44.2,13.3-47.4,13.4C1413,603,1411.9,603.2,1410.5,603.2z"/>
			<path class="st0" d="M1416.5,498.4c3.3,0,6.1,0.9,6.1,0.9s60.4,13.7,58.9,33.6c-1,13.7-14.7,44.2-22.1,55.7
				c-7.4,11.6-46.3,12.6-46.3,12.6s-1.2,0.3-2.7,0.3c-3.3,0-8.5-1.5-7.8-10.8c0.5-7.1,5.9-8.8,11-8.8c4.6,0,9,1.4,9,1.5c0,0,0,0,0,0
				l-25.5-8.5l-59.7-19.9c0,0-12.6-4.2-9.5-13.7c1.7-5,6-6.2,9.7-6.2c3.3,0,6.1,0.9,6.1,0.9l59.9,20c0,0-12.6-4.2-9.5-13.7
				c1.7-5,6-6.2,9.7-6.2c3.3,0,6.1,0.9,6.1,0.9c0,0,0,0,0,0l0,0l0,0c0,0,0,0,0,0c0,0-12.6-4.2-9.5-13.7c1.7-5,6-6.2,9.7-6.2
				c3.3,0,6.1,0.9,6.1,0.9c0,0,0,0,0,0l0,0l0,0c0,0,0,0,0,0c0,0-12.6-4.2-9.5-13.7C1408.5,499.5,1412.8,498.4,1416.5,498.4
				 M1416.5,495c-6.5,0-11,3-12.8,8.5c-1.5,4.5-0.4,8.2,1.8,11.1c-3.9,1.2-6.7,3.8-8.1,7.8c-1.5,4.5-0.4,8.2,1.8,11.1
				c-3.9,1.2-6.7,3.8-8.1,7.8c-0.9,2.6-0.9,4.9-0.3,6.9l-45.9-15.3c-0.3-0.1-3.4-1.1-7.1-1.1c-6.5,0-11,3-12.8,8.5
				c-1.7,5.2-0.1,10.2,4.6,14c3.2,2.6,6.8,3.8,7,3.9l59.7,19.9l8.6,2.9c-3.1,2-5,5.3-5.3,9.6c-0.4,4.9,0.6,8.6,3,11.1
				c2,2.1,4.8,3.3,8.2,3.3c1.4,0,2.5-0.2,3.1-0.3c1.9-0.1,10.7-0.4,20.5-2c15.3-2.5,24.5-6.4,28.2-12.1
				c7.3-11.4,21.5-42.7,22.6-57.2c0.8-9.9-9.7-19.2-31-27.6c-14.4-5.7-28.7-9.1-30.4-9.5C1422.7,495.8,1419.9,495,1416.5,495
				L1416.5,495z"/>
		</g>
	</g>
	<g>
		<g>
			<g>
				<g>
					
						<ellipse transform="matrix(0.9428 -0.3334 0.3334 0.9428 -3.4017 222.0424)" class="st2" cx="645.3" cy="120.9" rx="58" ry="46.7"/>
					<path class="st2" d="M656.7,71.9c21.4,0,36.7,11.2,43.3,29.7c9.1,25.6-3.7,50.8-39.1,63.3c-9.8,3.5-18.8,5.1-27,5.1
						c-21.4,0-36.7-11.2-43.3-29.7c-9.1-25.6,3.7-50.8,39.1-63.3C639.5,73.5,648.5,71.9,656.7,71.9 M656.7,70.9
						c-8.5,0-17.7,1.7-27.3,5.1c-17.2,6.1-29.9,15.5-36.8,27.2c-6.6,11.3-7.6,24.2-3,37.4c6.8,19.3,22.9,30.4,44.2,30.4
						c8.5,0,17.7-1.7,27.3-5.1c17.2-6.1,29.9-15.5,36.8-27.2c6.6-11.3,7.6-24.2,3-37.4C694.1,81.9,677.9,70.9,656.7,70.9L656.7,70.9
						z"/>
				</g>
				<g>
					<path class="st2" d="M658.2,153.8c-2.6,12.2-8.4,24.4-17.2,35.3c-2.5-11.1-3.8-22.3-3.9-33.3"/>
					<path class="st2" d="M658.2,153.8c-2.6,12.2-8.4,24.4-17.2,35.3c-2.5-11.1-3.8-22.3-3.9-33.3"/>
				</g>
			</g>
		</g>
		<g>
			<circle class="st0" cx="617.6" cy="131.9" r="6.3"/>
			<circle class="st0" cx="670.8" cy="113.1" r="6.3"/>
			<circle class="st0" cx="644.2" cy="122.5" r="6.3"/>
		</g>
	</g>
	<g>
		<g>
			<g>
				<path class="st2" d="M177.4,444c-2.1-2-5.5-1.9-7.6,0.2c-0.1,0.1-10.2,10.6-33.4,20c-23.2,9.4-37.8,9-37.9,9
					c-3-0.1-5.5,2.1-5.6,5.1c-0.1,3,2.2,5.5,5.1,5.6c0.6,0,14.1,0.5,35.9-7.3l9.9,84.9c0.3,2.9,3,5,5.9,4.7c2.9-0.3,5-3,4.7-5.9
					l-4.6-39l16.7-6.8l24,31.1c1.5,2,4.1,2.6,6.3,1.7c0.4-0.2,0.9-0.4,1.3-0.7c2.3-1.8,2.8-5.2,1-7.5l-52.2-67.7
					c21-9.6,30.4-19.4,30.8-19.8C179.6,449.4,179.5,446,177.4,444z"/>
			</g>
			<g>
				
					<ellipse transform="matrix(0.8148 -0.5797 0.5797 0.8148 -236.368 158.7638)" class="st2" cx="130.3" cy="449.4" rx="8.6" ry="8.6"/>
			</g>
		</g>
		<circle class="st7" cx="149.1" cy="496.2" r="84"/>
	</g>
	<g>
		<circle class="st8" cx="511.2" cy="725" r="39"/>
		<circle class="st2" cx="511.2" cy="725" r="27.8"/>
	</g>
	<g>
		<path class="st2" d="M778.9,817.6l-75-17.5c-7.3-1.7-11.8-9-10.1-16.3l17.5-75c1.7-7.3,9-11.8,16.3-10.1l75,17.5
			c7.3,1.7,11.8,9,10.1,16.3l-17.5,75C793.5,814.8,786.2,819.3,778.9,817.6z"/>
		<g>
			<path class="st0" d="M715.3,769.2l23.2-38.3l8.6,2l3.8,44.6l-7.7-1.8l-1.2-23.6c-0.2-2.4-0.3-4.8-0.3-7.2
				c-0.1-2.5-0.1-4.9-0.2-7.3l-0.3-0.1c-1.1,2.2-2.2,4.3-3.4,6.5c-1.2,2.2-2.3,4.3-3.5,6.3L722.7,771L715.3,769.2z M725.9,759.9
				l1.3-5.8l19.5,4.6l-1.3,5.8L725.9,759.9z"/>
			<path class="st0" d="M763.9,781.4c-1.8-0.4-3.3-1.2-4.6-2.3c-1.2-1.1-2.1-2.4-2.5-4c-0.5-1.6-0.5-3.2-0.1-5.1
				c0.8-3.4,2.9-5.7,6.2-6.9c3.3-1.2,8.3-1.3,14.8-0.5c0.2-1.1,0.2-2.1,0.1-3.1c-0.1-1-0.5-1.8-1.2-2.5c-0.7-0.7-1.7-1.2-3.1-1.6
				c-1.5-0.4-3.1-0.4-4.7-0.2c-1.6,0.2-3.2,0.6-4.8,1.1l-1.5-5.6c1.3-0.5,2.7-0.8,4.2-1.1c1.5-0.3,3.1-0.5,4.7-0.5s3.2,0.2,4.9,0.5
				c2.6,0.6,4.6,1.6,6.1,3.1c1.5,1.4,2.4,3.3,2.8,5.5c0.4,2.2,0.3,4.8-0.4,7.7l-4.3,18.5l-6.1-1.4l0.2-3.6l-0.3-0.1
				c-1.7,0.9-3.4,1.5-5.1,2C767.6,781.8,765.8,781.8,763.9,781.4z M767.6,776c1.3,0.3,2.5,0.3,3.6,0c1.2-0.3,2.4-0.8,3.8-1.6
				l1.5-6.6c-2.9-0.3-5.2-0.4-7-0.2c-1.7,0.2-3,0.6-3.9,1.2c-0.8,0.6-1.4,1.5-1.6,2.5c-0.3,1.3-0.1,2.3,0.5,3.1
				C765.4,775.1,766.3,775.7,767.6,776z"/>
		</g>
	</g>
	<polygon class="st9" points="1083.1,720 1060.7,734.9 1060.2,761.9 1039.1,745.2 1013.3,753.1 1022.7,727.8 1007.2,705.7 
		1034.2,706.8 1050.4,685.2 1057.6,711.2 	"/>
	<polygon class="st10" points="1392.5,135.2 1374.7,140.4 1369,158 1358.6,142.8 1340.1,142.7 1351.3,128.1 1345.6,110.5 
		1363.1,116.7 1378,105.8 1377.5,124.3 	"/>
	<g>
		<path class="st2" d="M407.8,489.6c-28.9-1-34.3-5.9-38-11.7l-0.3-0.5l0-0.1c-3.6-6.7-1.3-15,5.3-18.8c2.4-1.6,5.2-2.3,8.4-2.3
			c1.9,0,3.7,0.3,5.1,0.7c0.6-3.3,2.3-8.4,7.1-11.5c2.4-1.7,5.2-2.6,8.2-2.6c4.4,0,8.5,2,11.2,5.5l0.1,0.1l0.3,0.5
			c3.8,5.7,6,12.6-4.9,39.4l-0.6,1.5L407.8,489.6z"/>
		<path class="st0" d="M403.4,445.1c3.5,0,7,1.6,9.3,4.6c2.7,4.1,6.9,8.8-4.8,37.6c-31-1.1-33.6-6.8-36.3-11c-3-5.6-1-12.5,4.4-15.7
			c2.3-1.5,4.9-2,7.1-2c4,0,7.1,1.5,7.1,1.5s-0.1-8.6,6.3-12.7C398.7,445.8,401.1,445.1,403.4,445.1 M403.4,440.3L403.4,440.3
			c-3.4,0-6.7,1-9.5,3c-4.4,2.9-6.5,7.2-7.5,10.7c-1-0.2-2.1-0.3-3.3-0.3c-3.6,0-6.8,0.9-9.6,2.7c-7.6,4.5-10.3,14.2-6.1,22l0.1,0.2
			l0.1,0.2l0.3,0.4c4.1,6.4,9.9,11.8,39.9,12.8l3.3,0.1l1.3-3.1c11.3-27.8,8.8-35.3,4.6-41.6l-0.3-0.4l-0.1-0.2l-0.1-0.2
			C413.3,442.7,408.6,440.3,403.4,440.3L403.4,440.3z"/>
	</g>
	<g>
		<g>
			<path class="st11" d="M403.6,656.7L110.4,800.8c-7.9,3.9-17.7,0.6-21.6-7.3L72,759.3c-3.9-7.9-0.6-17.7,7.3-21.6l293.3-144.1
				c7.9-3.9,17.7-0.6,21.6,7.3l16.8,34.2C414.9,643.1,411.6,652.8,403.6,656.7z"/>
			<g>
				<path class="st2" d="M146.5,758.5c-1.5,0.7-3,1-4.4,0.9c-1.3-0.1-2.3-0.5-3.1-1.2c-0.8-0.7-1.3-1.6-1.4-2.6c0,0,0-0.1,0-0.2
					c0-0.1,0-0.1,0-0.2c0,0,0-0.1,0-0.2c-1.8,2.1-3.4,3.9-5,5.3c-0.7,0.6-1.4,1.1-2.3,1.5c-0.8,0.4-1.7,0.6-2.5,0.7
					c-0.8,0.1-1.6,0.1-2.4-0.1c-0.8-0.2-1.5-0.5-2-0.9c-0.6-0.4-1-1-1.3-1.6c-0.2-0.6-0.3-1.3-0.3-2c0.1-0.7,0.3-1.4,0.7-2.1
					c0.4-0.7,0.9-1.4,1.6-2c0.6-0.5,1.6-1.5,2.9-3.1c1.3-1.5,3-3.8,5-7c0.6-0.9,1.2-1.8,1.6-2.6c0.5-0.8,0.9-1.5,1.3-2.2
					c0.4-0.7,0.8-1.4,1.1-2c1.1-2,2.9-3.4,5.3-4.1c0.9-0.2,1.8-0.3,2.6-0.3c0.9,0.1,1.6,0.3,2.3,0.6c1.1,0.5,1.8,1.3,2.1,2.2
					c0.4,0.9,0.6,2.1,0.8,3.4c0.1,0.3,0.1,0.7,0.2,1c0,0.3,0.1,0.7,0.1,1.1c1.3-0.7,2.6-1.1,3.9-1.1c1.3-0.1,2.5,0.2,3.6,0.9
					c0.6,0.4,1.1,0.9,1.4,1.5c0.3,0.6,0.4,1.2,0.4,1.9c0,0.7-0.2,1.4-0.5,2.1s-0.8,1.4-1.5,2c-1.1,1.1-2.2,2.2-3.1,3.1
					c-0.9,1-1.7,1.8-2.4,2.6c-0.7,0.8-1.2,1.3-1.6,1.8c-0.4,0.4-0.6,0.7-0.7,0.7C148.4,757.4,147.5,758.1,146.5,758.5z"/>
				<path class="st2" d="M170.5,746.8c-1.5,0.7-3,1-4.4,0.9c-1.3-0.1-2.3-0.5-3.1-1.2c-0.8-0.7-1.3-1.6-1.4-2.6c0,0,0-0.1,0-0.2
					c0-0.1,0-0.1,0-0.2c0,0,0-0.1,0-0.2c-1.8,2.1-3.4,3.9-5,5.3c-0.7,0.6-1.4,1.1-2.3,1.5c-0.8,0.4-1.7,0.6-2.5,0.7
					c-0.8,0.1-1.6,0.1-2.4-0.1c-0.8-0.2-1.5-0.5-2-0.9c-0.6-0.4-1-1-1.3-1.6c-0.2-0.6-0.3-1.3-0.3-2c0.1-0.7,0.3-1.4,0.7-2.1
					c0.4-0.7,0.9-1.4,1.6-2c0.6-0.5,1.6-1.5,2.9-3.1c1.3-1.5,3-3.8,5-7c0.6-0.9,1.2-1.8,1.6-2.6c0.5-0.8,0.9-1.5,1.3-2.2
					c0.4-0.7,0.8-1.4,1.1-2c1.1-2,2.9-3.4,5.3-4.1c0.9-0.2,1.8-0.3,2.6-0.3c0.9,0.1,1.6,0.3,2.3,0.6c1.1,0.5,1.8,1.3,2.1,2.2
					c0.4,0.9,0.6,2.1,0.8,3.4c0.1,0.3,0.1,0.7,0.2,1c0,0.3,0.1,0.7,0.1,1.1c1.3-0.7,2.6-1.1,3.9-1.1c1.3-0.1,2.5,0.2,3.6,0.9
					c0.6,0.4,1.1,0.9,1.4,1.5c0.3,0.6,0.4,1.2,0.4,1.9c0,0.7-0.2,1.4-0.5,2.1c-0.3,0.7-0.8,1.4-1.5,2c-1.1,1.1-2.2,2.2-3.1,3.1
					c-0.9,1-1.7,1.8-2.4,2.6c-0.7,0.8-1.2,1.3-1.6,1.8c-0.4,0.4-0.6,0.7-0.7,0.7C172.3,745.6,171.5,746.3,170.5,746.8z"/>
				<path class="st2" d="M201.6,730.9c-0.6,0.3-1.2,0.5-2,0.7c-1.1,0.3-2.2,0.4-3.2,0.3c-1-0.1-1.8-0.5-2.6-1
					c-1.2-0.8-1.9-2.2-1.9-4c0-0.6,0.1-1.4,0.2-2.4c0-0.2,0-0.3,0.1-0.5c0-0.2,0.1-0.4,0.1-0.6c-0.8,0.8-1.5,1.7-2.2,2.5
					c-0.7,0.9-1.4,1.7-2.2,2.5c-1.3,1.6-2.6,3.1-3.8,4.5c-1.2,1.4-2.4,2.6-3.5,3.7c-0.6,0.7-1.4,1.2-2.2,1.6
					c-0.8,0.4-1.6,0.7-2.5,0.8c-0.8,0.1-1.7,0.2-2.5,0c-0.8-0.1-1.5-0.4-2.1-0.8c-0.7-0.4-1.1-0.9-1.4-1.5c-0.3-0.6-0.4-1.2-0.4-1.9
					c0-0.7,0.2-1.4,0.5-2.1c0.3-0.7,0.8-1.4,1.5-2c0.8-0.8,1.7-1.8,2.8-3.1c1.1-1.2,2.3-2.6,3.5-4c1.4-1.7,2.9-3.4,4.5-5.3
					c1.6-1.8,3.2-3.5,4.8-5.1c1.8-1.9,3.5-3.4,5.3-4.6c1.2-0.9,2.3-1.6,3.5-2.2c1.1-0.6,2.3-1,3.4-1.3c2.5-0.6,4.5-0.3,6.1,0.9
					c1.2,0.9,1.8,1.9,1.9,3.3s0.1,2.6-0.2,4c0.1-0.1,0.2-0.2,0.4-0.3c0.1-0.1,0.2-0.2,0.3-0.3c0.7-0.6,1.4-1.1,2.2-1.4
					c0.8-0.3,1.7-0.6,2.5-0.7c0.8-0.1,1.6-0.1,2.4,0.1c0.8,0.2,1.4,0.5,2,0.9c0.6,0.5,1,1,1.3,1.6c0.3,0.6,0.3,1.3,0.3,2
					c-0.1,0.7-0.3,1.4-0.7,2.1c-0.4,0.7-0.9,1.4-1.7,2c-1.7,1.5-3.2,2.8-4.6,4c-1.4,1.2-2.6,2.3-3.7,3.2c-1.5,1.2-2.8,2.2-3.8,2.9
					C203.4,729.9,202.5,730.5,201.6,730.9z"/>
				<path class="st2" d="M222.6,724.9c-0.5,0.2-0.9,0.4-1.3,0.6c-0.4,0.2-0.7,0.3-0.9,0.4c-1.3,0.3-2.5,0.4-3.7,0.3
					c-1.2-0.1-2.2-0.4-3-1c-0.5-0.3-0.9-0.6-1.1-0.9c-0.3-0.3-0.5-0.7-0.7-1c-0.2-0.5-0.4-1-0.5-1.5c-0.5,0-0.9,0-1.5,0
					c-0.5,0-0.9-0.1-1.3-0.2c-1.5-0.5-2.5-1.3-3-2.4c-0.4-0.7-0.5-1.5-0.4-2.4c0.1-0.9,0.4-1.7,0.9-2.6c0.1-0.3,0.4-0.7,0.7-1.4
					c0.3-0.7,0.6-1.4,0.9-2l0.7-1.6c0.3-0.7,0.7-1.5,1.1-2.3c0.4-0.8,0.7-1.5,1.1-2.2c0.4-0.8,0.8-1.4,1.2-1.9
					c0.3-0.5,0.7-1,0.9-1.4c1.7-2,3.7-3.4,6.2-4.2c2.6-0.7,4.7-0.5,6.2,0.7l-0.1,0c0.3,0.2,0.6,0.4,0.8,0.6c0.2,0.2,0.4,0.4,0.6,0.7
					c0.3-0.7,0.6-1.4,0.9-2.1c0.2-0.6,0.5-1.2,0.7-1.7l0.5-1.2c0.1-0.1,0.1-0.2,0.1-0.3c0-0.1,0-0.1,0.1-0.2
					c0.5-1.3,1.4-2.4,2.5-3.4s2.4-1.7,3.8-2.1c1-0.3,2-0.3,3-0.2c1,0.1,1.9,0.4,2.7,0.8c1.1,0.7,1.7,1.4,2,2.1
					c0.3,0.7,0.4,1.2,0.5,1.5c0,0.2,0.1,0.3,0.1,0.5c0,0.2,0,0.3,0,0.5l0.1,1.1l0,0.2c0.8-0.3,1.7-0.6,2.7-0.7
					c0.9-0.1,1.8-0.1,2.6,0.1c0.8,0.2,1.4,0.6,2,1c0.6,0.5,1,1,1.2,1.5c0.8,1.5,0.5,3.2-0.6,5.1l-0.2,0.4c-0.6,1-1.2,2-1.9,3
					c-0.7,1-1.5,2-2.3,3.1c-1.9,2.3-4,4-6.3,5.1c-1,0.5-2,0.9-3.1,1.1c-0.8,0.2-1.6,0.4-2.4,0.4c-0.8,0-1.5-0.1-2.2-0.3
					c-0.3,0.5-0.7,1.1-1,1.5c-0.3,0.5-0.7,1-1.1,1.6l0.1,0c-0.7,1-1.4,1.8-2.1,2.6c-0.7,0.8-1.4,1.5-2,2.1c-0.6,0.6-1.3,1.1-2,1.5
					C224,724.1,223.3,724.5,222.6,724.9z"/>
				<path class="st2" d="M263.4,701.1c-1.5,0.7-3,1-4.4,0.9c-1.3-0.1-2.3-0.5-3.1-1.2c-0.8-0.7-1.3-1.6-1.4-2.6c0,0,0-0.1,0-0.2
					c0-0.1,0-0.1,0-0.2c0,0,0-0.1,0-0.2c-1.8,2.1-3.4,3.9-5,5.3c-0.7,0.6-1.4,1.1-2.3,1.5c-0.8,0.4-1.7,0.6-2.5,0.7
					c-0.8,0.1-1.6,0.1-2.4-0.1c-0.8-0.2-1.5-0.5-2-0.9c-0.6-0.4-1-1-1.3-1.6c-0.2-0.6-0.3-1.3-0.3-2c0.1-0.7,0.3-1.4,0.7-2.1
					c0.4-0.7,0.9-1.4,1.6-2c0.6-0.5,1.6-1.5,2.9-3.1c1.3-1.5,3-3.8,5-7c0.6-0.9,1.2-1.8,1.6-2.6c0.5-0.8,0.9-1.5,1.3-2.2
					c0.4-0.7,0.8-1.4,1.1-2c1.1-2,2.9-3.4,5.3-4.1c0.9-0.3,1.8-0.3,2.6-0.3c0.9,0.1,1.6,0.3,2.3,0.6c1.1,0.5,1.8,1.3,2.1,2.2
					c0.4,0.9,0.6,2.1,0.8,3.4c0.1,0.3,0.1,0.7,0.2,1c0,0.3,0.1,0.7,0.1,1.1c1.3-0.7,2.6-1.1,3.9-1.1c1.3-0.1,2.5,0.2,3.6,0.9
					c0.6,0.4,1.1,0.9,1.4,1.5c0.3,0.6,0.4,1.2,0.4,1.9c0,0.7-0.2,1.4-0.5,2.1c-0.3,0.7-0.8,1.4-1.5,2c-1.1,1.1-2.2,2.2-3.1,3.1
					c-0.9,1-1.7,1.8-2.4,2.6c-0.7,0.8-1.2,1.3-1.6,1.8c-0.4,0.4-0.6,0.7-0.7,0.7C265.3,699.9,264.4,700.6,263.4,701.1z"/>
			</g>
		</g>
		<path class="st2" d="M317.3,623.4l29.5,60.1l56.7-27.9c0,0,12.1-11.3,7.8-19.8s-16.9-34.4-16.9-34.4s-11.6-13.3-25.5-5
			S317.3,623.4,317.3,623.4z"/>
		<g>
			<polyline class="st12" points="356.5,617.5 383.1,626.6 374,653.2 			"/>
			<line class="st12" x1="380.8" y1="627.7" x2="348.3" y2="643.7"/>
		</g>
	</g>
	<circle class="st13" cx="498.7" cy="869.6" r="12.4"/>
	<circle class="st14" cx="918.7" cy="827.6" r="28.9"/>
	<circle class="st14" cx="33.5" cy="25.4" r="115.4"/>
	<g>
		<line class="st15" x1="1167.5" y1="588" x2="1208.7" y2="560.6"/>
		<line class="st15" x1="1180.7" y1="607.9" x2="1221.9" y2="580.5"/>
		<line class="st15" x1="1154.4" y1="568.2" x2="1195.7" y2="540.9"/>
	</g>
	<path class="st16" d="M400.2,125.4l-52.3-5.5c-4.6-0.6-8-4.6-7.3-9.2l5.5-52.3c0.6-4.6,4.6-8,9.2-7.3l52.3,5.5
		c4.6,0.6,8,4.6,7.3,9.2l-5.5,52.3C408.7,122.3,404.7,125.7,400.2,125.4z"/>
	<polygon class="st17" points="1663.9,904.6 1571.8,898 1514.2,970.1 1492,880.5 1405.6,848 1483.9,799.2 1488.2,706.9 
		1558.8,766.4 1647.8,741.9 1613.1,827.5 	"/>
	<polygon class="st13" points="1476.7,358.9 1463.6,381.5 1489.7,381.5 	"/>
	<polygon class="st18" points="868.1,656.6 893.4,718.1 933.8,665.4 	"/>
	<polygon class="st19" points="92.2,195.9 46.5,285.1 152,276 	"/>
	<polygon class="st19" points="1747,211 1656.4,334.8 1503.9,318.3 1442,178 1532.6,54.2 1685.1,70.7 	"/>
	<circle class="st2" cx="888.5" cy="109.8" r="20.2"/>
	<g>
		<path class="st20" d="M332.1,828.6c-0.8,8.9-8.8,15.4-17.8,14.6c-9-0.8-15.7-8.6-14.8-17.5c0.8-8.9,8.8-15.4,17.8-14.6l-8.2-5.9"
			/>
		<path class="st20" d="M312.6,820l4.7-8.9L312.6,820z"/>
	</g>
	<g>
		<line class="st21" x1="757.5" y1="173.8" x2="817.8" y2="197.4"/>
		<line class="st21" x1="799.7" y1="156.1" x2="775.6" y2="215.1"/>
	</g>
	<g>
		<line class="st22" x1="1572.7" y1="460.2" x2="1524.1" y2="462.4"/>
		<line class="st22" x1="1549.1" y1="485.3" x2="1547.6" y2="437.3"/>
	</g>
	<g>
		<polyline class="st23" points="544.9,214.5 577.6,228.4 563.6,261.1 		"/>
		<polyline class="st23" points="471.7,243.9 457.7,276.6 490.4,290.5 		"/>
		<line class="st23" x1="516.8" y1="211.3" x2="519.5" y2="293.3"/>
	</g>
</g>
<g id="Layer_2">
	<g>
		<g>
			<path class="st2" d="M609,607.8c-57.9,0-105-47.1-105-105s47.1-105,105-105c10,0,19.9,1.4,29.4,4.2c8.6-34.4,28.3-65.6,55.9-88.2
				c29.5-24.1,66.8-37.4,104.9-37.4c28.8,0,57.1,7.5,82,21.7c23,13.1,42.7,31.8,57.2,54c9.8-2.3,19.8-3.5,30-3.5
				c71.5,0,129.6,58.2,129.6,129.7c0,34.1-13.2,66.4-37.1,90.8c-22.7,23.2-52.7,36.8-84.9,38.7v0.2l-5,0H609z M879.7,433.5
				c-12.8,0-19.3,10.6-19.3,31.5s6.5,31.5,19.3,31.5c12.8,0,19.3-10.6,19.3-31.5S892.6,433.5,879.7,433.5z M715.7,433.5
				c-12.8,0-19.3,10.6-19.3,31.5s6.5,31.5,19.3,31.5S735,485.9,735,465S728.5,433.5,715.7,433.5z M594.3,371.5
				c-20.8,0-37.8-17-37.8-37.8s17-37.8,37.8-37.8s37.8,17,37.8,37.8S615.2,371.5,594.3,371.5z"/>
			<path class="st0" d="M799.2,281.2c57.8,0,108.5,30.5,136.8,76.4c10.3-2.7,21.1-4.2,32.3-4.2c68.8,0,124.6,55.8,124.6,124.7
				c0,67.9-54.3,123.2-121.9,124.6v0H609c-55.2,0-100-44.8-100-100s44.8-100,100-100c11.6,0,22.7,2,33.1,5.6
				C657.5,335.7,722,281.2,799.2,281.2 M879.7,501.5c18.2,0,24.3-16.3,24.3-36.5c0-20.2-6.1-36.5-24.3-36.5s-24.3,16.3-24.3,36.5
				C855.4,485.1,861.5,501.5,879.7,501.5 M715.7,501.5c18.2,0,24.3-16.3,24.3-36.5c0-20.2-6.1-36.5-24.3-36.5s-24.3,16.3-24.3,36.5
				C691.4,485.1,697.4,501.5,715.7,501.5 M594.3,300.9c18.1,0,32.8,14.7,32.8,32.8c0,18.1-14.7,32.8-32.8,32.8
				c-18.1,0-32.8-14.7-32.8-32.8C561.5,315.6,576.2,300.9,594.3,300.9 M799.2,271.2c-20.1,0-39.7,3.4-58.4,10.3
				c-18.1,6.6-34.8,16.1-49.7,28.3c-27.2,22.2-46.9,52.5-56.3,86c-8.4-2-17.1-3.1-25.9-3.1c-29.4,0-57,11.4-77.8,32.2
				c-20.8,20.8-32.2,48.4-32.2,77.8c0,29.4,11.4,57,32.2,77.8c20.8,20.8,48.4,32.2,77.8,32.2h362.1h10v-0.6
				c31.6-3,61-16.9,83.5-39.8c24.8-25.3,38.5-58.8,38.5-94.3c0-36-14-69.8-39.4-95.2c-25.4-25.4-59.2-39.4-95.2-39.4
				c-9.3,0-18.6,1-27.7,2.9c-14.7-21.6-34.2-39.8-57-52.7C858.1,279,828.9,271.2,799.2,271.2L799.2,271.2z M879.7,491.5
				c-5,0-8.1-1.7-10.3-5.7c-2.6-4.5-4-11.7-4-20.8c0-9.1,1.4-16.3,4-20.8c2.3-4,5.4-5.7,10.3-5.7s8.1,1.7,10.3,5.7
				c2.6,4.5,4,11.7,4,20.8c0,9.1-1.4,16.3-4,20.8C887.8,489.8,884.7,491.5,879.7,491.5L879.7,491.5z M715.7,491.5
				c-5,0-8.1-1.7-10.3-5.7c-2.6-4.5-4-11.7-4-20.8c0-9.1,1.4-16.3,4-20.8c2.3-4,5.4-5.7,10.3-5.7s8.1,1.7,10.3,5.7
				c2.6,4.5,4,11.7,4,20.8c0,9.1-1.4,16.3-4,20.8C723.7,489.8,720.7,491.5,715.7,491.5L715.7,491.5z M594.3,290.9
				c-23.6,0-42.8,19.2-42.8,42.8c0,23.6,19.2,42.8,42.8,42.8c23.6,0,42.8-19.2,42.8-42.8C637.1,310.1,617.9,290.9,594.3,290.9
				L594.3,290.9z"/>
		</g>
	</g>
</g>
</svg>
